Coordinates
version=1
nRows=16
nColumns=40
inDegrees=yes

Units are S.I. units (second, meters, Newtons, ...)
Angles are in degrees.

endheader
time	pelvis_tilt	pelvis_list	pelvis_rotation	pelvis_tx	pelvis_ty	pelvis_tz	hip_flexion_r	hip_adduction_r	hip_rotation_r	knee_angle_r	knee_angle_r_beta	ankle_angle_r	subtalar_angle_r	mtp_angle_r	hip_flexion_l	hip_adduction_l	hip_rotation_l	knee_angle_l	knee_angle_l_beta	ankle_angle_l	subtalar_angle_l	mtp_angle_l	lumbar_extension	lumbar_bending	lumbar_rotation	arm_flex_r	arm_add_r	arm_rot_r	elbow_flex_r	pro_sup_r	wrist_flex_r	wrist_dev_r	arm_flex_l	arm_add_l	arm_rot_l	elbow_flex_l	pro_sup_l	wrist_flex_l	wrist_dev_l
     38.08764286	     -6.83287753	     -3.63915347	     -5.35954649	      0.88128800	      0.92423566	      0.45223026	     28.86672370	     -0.44150042	    -14.45890873	     11.47900706	     11.47900706	      2.59605723	      6.69463944	      7.76131894	      6.25074327	     -4.35347957	     -7.99434239	     15.79851477	     15.79851477	     16.94342997	    -10.68873068	     -2.00073873	    -10.78028477	      5.43935361	      1.39879141	     -5.42615266	    -14.12685755	     -4.05083502	     25.61421880	     47.07667002	      0.00000000	      0.00000000	      4.92365750	    -13.82768213	    -10.20321600	     86.19270582	     47.50964952	      0.00000000	      0.00000000
     38.10028571	     -6.81565217	     -3.63717341	     -5.38754469	      0.88270146	      0.92316861	      0.45445143	     28.41739377	     -0.33960091	    -14.56886993	     11.79162868	     11.79162868	      2.59015531	      6.72625068	      7.49925331	      5.49457764	     -4.42251543	     -8.03502108	     15.49057952	     15.49057952	     17.36803077	    -10.57051858	     -2.03143223	    -10.54817347	      5.50614798	      1.37952498	     -5.26146380	    -13.92010524	     -4.11940687	     25.76649717	     47.07240376	      0.00000000	      0.00000000	      4.84938354	    -13.53081867	     -9.98962427	     86.27030943	     47.50203060	      0.00000000	      0.00000000
     38.11292857	     -6.78818766	     -3.68822964	     -5.35288029	      0.88433135	      0.92208223	      0.45674271	     27.96024386	     -0.23660759	    -14.48320379	     12.45457984	     12.45457984	      2.61388163	      6.59200117	      7.08846448	      4.74432121	     -4.55948427	     -8.00777290	     15.23543915	     15.23543915	     17.79334533	    -10.45487408	     -2.03549883	    -10.27128831	      5.65943699	      1.36585744	     -5.01249622	    -13.66861337	     -4.15739445	     25.95953612	     47.06595230	      0.00000000	      0.00000000	      4.71012052	    -13.19495251	     -9.76804684	     86.29942083	     47.49081083	      0.00000000	      0.00000000
     38.12557143	     -6.60640739	     -3.48695457	     -5.32826485	      0.88628111	      0.92090857	      0.45904862	     27.40674918	     -0.34206464	    -13.80778137	     13.24426361	     13.24426361	      0.92153683	      5.42036603	      1.17184911	      3.80579881	     -4.42874465	     -8.20806758	     15.01222678	     15.01222678	     18.92959518	     -9.65766773	     -0.56550047	    -10.16290865	      5.49857219	      1.47834992	     -5.20186322	    -13.44040414	     -5.32779007	     27.17506870	     47.03215103	      0.00000000	      0.00000000	      4.59462551	    -13.12165750	     -9.27566931	     86.53170159	     47.54152244	      0.00000000	      0.00000000
     38.13821429	     -6.49133474	     -3.47916324	     -5.24555232	      0.88812786	      0.91981240	      0.46140821	     27.11738743	     -0.34419415	    -13.26211842	     14.63461209	     14.63461209	      1.09937721	      4.61317195	      0.56284977	      3.02949373	     -4.51145121	     -8.13609588	     14.88949719	     14.88949719	     19.37073849	     -9.56807335	     -0.48724507	     -9.97007540	      5.58347801	      1.43237056	     -4.83081287	    -13.27214098	     -5.38274123	     27.39849684	     47.02120421	      0.00000000	      0.00000000	      4.42356789	    -12.85737963	     -9.12301754	     86.38242084	     47.53680542	      0.00000000	      0.00000000
     38.15085714	     -6.34894717	     -3.44327628	     -5.12800575	      0.89000656	      0.91875105	      0.46384764	     26.76558534	     -0.26665590	    -12.27182006	     15.83241995	     15.83241995	      0.59744996	      2.93289604	     -1.99615032	      2.44228826	     -4.61769305	     -8.08650548	     15.22132244	     15.22132244	     20.38114230	     -9.26658854	      0.88348541	     -9.82530281	      5.65069611	      1.41350845	     -4.54457718	    -13.09644310	     -5.73554973	     28.19819186	     46.94395724	      0.00000000	      0.00000000	      4.23245579	    -12.57174378	     -9.00756804	     86.23334298	     47.59570524	      0.00000000	      0.00000000
     38.16350000	     -6.17302746	     -3.46690104	     -4.93819221	      0.89189429	      0.91791790	      0.46621122	     26.50155825	     -0.22872697	    -11.69437783	     17.26763070	     17.26763070	      1.00571021	      1.96652479	     -2.42358789	      1.88580016	     -4.77902040	     -7.83714887	     15.59596571	     15.59596571	     20.72379135	     -9.42983237	      0.91904100	     -9.71081273	      5.77734851	      1.33160106	     -4.06504587	    -12.99948169	     -5.74490406	     28.49259275	     46.92884806	      0.00000000	      0.00000000	      3.96668267	    -12.30933752	     -8.86286170	     85.96263685	     47.58651468	      0.00000000	      0.00000000
     38.17614286	     -6.10220490	     -3.44461803	     -4.74220991	      0.89355837	      0.91712530	      0.46860824	     26.40969891	     -0.11923335	    -10.71045040	     18.60137465	     18.60137465	      1.37874183	      0.25670343	     -2.80528517	      1.73555412	     -4.93280610	     -7.48528899	     16.47793335	     16.47793335	     21.10017227	     -9.88108931	      1.28937951	     -9.49458829	      5.90827453	      1.20365402	     -3.53819441	    -12.85184256	     -5.73689492	     29.06909975	     46.89080354	      0.00000000	      0.00000000	      3.61338467	    -11.95948747	     -8.80040947	     85.52185449	     47.58730649	      0.00000000	      0.00000000
     38.18878571	     -5.92171518	     -3.46024569	     -4.50428372	      0.89504754	      0.91671584	      0.47098327	     26.20331958	     -0.02327765	    -10.04776320	     19.82655258	     19.82655258	      1.93338725	     -0.93303574	     -3.13806028	      1.72816552	     -5.15509533	     -7.02368706	     17.80617522	     17.80617522	     21.32560891	    -10.48027664	      1.47566113	     -9.48419884	      6.02303622	      1.11025561	     -2.89393810	    -12.81210479	     -5.70524595	     29.64696550	     46.85538404	      0.00000000	      0.00000000	      3.36428519	    -11.69482430	     -8.75244421	     84.99840463	     47.58494368	      0.00000000	      0.00000000
     38.20142857	     -5.48143833	     -3.45695434	     -4.28496301	      0.89673098	      0.91715603	      0.47331650	     25.52600762	      0.01632353	     -9.73895363	     20.63191547	     20.63191547	      2.59065641	     -1.40842485	     -3.43361050	      1.49293542	     -5.35244405	     -6.75415027	     19.22164394	     19.22164394	     21.20641806	    -11.06797911	      1.40164766	     -9.82019491	      6.12428064	      1.18757800	     -2.13598592	    -12.75979514	     -5.68731029	     30.01793328	     46.84189035	      0.00000000	      0.00000000	      3.02951546	    -11.27416128	     -8.55111405	     84.61746429	     47.56515529	      0.00000000	      0.00000000
     38.21407143	     -5.56389771	     -3.51205519	     -3.90167955	      0.89752149	      0.91678812	      0.47555383	     25.63705875	      0.14070986	     -9.35438342	     21.65601687	     21.65601687	      3.21670026	     -2.71577349	     -3.57684986	      2.64317508	     -5.70176196	     -5.94073326	     21.98901311	     21.98901311	     20.98229303	    -12.48179893	      1.19469220	     -9.56683226	      6.34317140	      0.89466022	     -1.31288650	    -12.77418781	     -5.65438337	     30.71049584	     46.80774699	      0.00000000	      0.00000000	      2.84265260	    -11.20379027	     -8.56280271	     83.67618372	     47.55522695	      0.00000000	      0.00000000
     38.22671429	     -5.38773014	     -3.55940029	     -3.57457102	      0.89842480	      0.91721581	      0.47776890	     25.24978057	      0.24437295	     -9.18975796	     22.24513354	     22.24513354	      3.88894211	     -3.44611189	     -3.67001564	      3.56944177	     -6.00824434	     -5.27816280	     24.84446952	     24.84446952	     20.44457511	    -13.82681551	      0.94503161	     -9.65256614	      6.53733559	      0.80961420	     -0.43059860	    -12.82583214	     -5.59956604	     31.37384130	     46.77500478	      0.00000000	      0.00000000	      2.62746281	    -10.94072686	     -8.48922144	     82.75991809	     47.53888319	      0.00000000	      0.00000000
     38.23935714	     -5.07458091	     -3.62583749	     -3.25263557	      0.89919561	      0.91806060	      0.47998274	     24.61766572	      0.34216809	     -9.20315227	     22.62961525	     22.62961525	      4.56559950	     -3.77548062	     -3.82548724	      4.55792592	     -6.34704902	     -4.72578148	     28.03790947	     28.03790947	     19.66575791	    -15.13339920	      0.66497533	     -9.94768777	      6.70224361	      0.82387241	      0.60233333	    -12.90079841	     -5.56506596	     31.98925595	     46.75035025	      0.00000000	      0.00000000	      2.47032692	    -10.69234237	     -8.35904008	     81.96244603	     47.51875106	      0.00000000	      0.00000000
     38.25200000	     -5.19997291	     -3.70314555	     -2.81792106	      0.89944212	      0.91835061	      0.48200318	     24.41509473	      0.42195051	     -9.40282781	     22.86536648	     22.86536648	      5.15883347	     -4.08215063	     -3.83279007	      6.47423649	     -6.70923863	     -3.93723849	     31.87936734	     31.87936734	     18.58416965	    -16.60749801	      0.40619884	     -9.71718326	      6.95040002	      0.63410315	      1.45386704	    -13.03369661	     -5.43570492	     32.94145082	     46.69612030	      0.00000000	      0.00000000	      2.24517982	    -10.45561854	     -8.24807638	     80.28705053	     47.48917843	      0.00000000	      0.00000000
     38.26464286	     -5.04516806	     -3.90642067	     -2.41901973	      0.89977139	      0.91908221	      0.48416209	     23.76673442	      0.62027269	     -9.85973382	     22.88831421	     22.88831421	      5.77442252	     -4.02907123	     -3.95571119	      8.17400983	     -7.24959708	     -3.40848111	     35.85533392	     35.85533392	     17.51529641	    -17.63093082	      0.38909860	     -9.80238789	      7.19895017	      0.64492964	      2.41572593	    -13.25719169	     -5.35915987	     33.72442596	     46.65817186	      0.00000000	      0.00000000	      2.09471405	    -10.22976811	     -8.04875816	     79.09612743	     47.45958383	      0.00000000	      0.00000000
     38.27728571	     -4.81873168	     -4.13873854	     -2.02348780	      0.89981774	      0.91990040	      0.48619492	     23.03392976	      0.83010113	    -10.38666310	     22.87320585	     22.87320585	      6.27792081	     -3.87248676	     -4.10822885	      9.93607635	     -7.84242162	     -3.00186150	     39.93134147	     39.93134147	     16.36639400	    -18.38145009	      0.62795642	    -10.06077784	      7.57956525	      0.71177141	      3.57010816	    -13.48166227	     -5.31903726	     34.46470476	     46.62913496	      0.00000000	      0.00000000	      2.01864231	    -10.07726149	     -7.84601365	     78.07310933	     47.43107214	      0.00000000	      0.00000000
